<svg viewBox="0 0 920 560" xmlns="http://www.w3.org/2000/svg" font-family="'Segoe UI', system-ui, -apple-system, sans-serif">
  <defs>
    <marker id="ra" markerWidth="12" markerHeight="12" refX="6" refY="5" orient="auto">
      <path d="M1,1 L9,5 L1,9" fill="none" stroke="#8a93a8" stroke-width="1.6" stroke-linecap="round" stroke-linejoin="round"/>
    </marker>
  </defs>
  <rect width="920" height="560" fill="#0d0d0f"/>

  <text x="40" y="48" font-size="20" font-weight="800" fill="#ffffff">Hybrid Retrieval Pipeline</text>
  <text x="40" y="70" font-size="12.5" fill="#8a93a8">Dense + sparse search, fused with RRF, re-ranked, then expanded small-to-big</text>

  <!-- INPUT band (purple) -->
  <g>
    <rect x="40" y="92" width="840" height="92" rx="10" fill="#3b2d8f"/>
    <text x="60" y="117" font-size="15" font-weight="700" fill="#dcd6f7">Query preparation</text>
    <rect x="58" y="128" width="250" height="44" rx="7" fill="#2a2068" stroke="#5446b0"/>
    <text x="183" y="148" text-anchor="middle" font-size="13.5" font-weight="700" fill="#eae6fb">Rewritten query</text>
    <text x="183" y="165" text-anchor="middle" font-size="10.5" fill="#b3aae0">expanded + metadata filter</text>
    <rect x="320" y="128" width="250" height="44" rx="7" fill="#2a2068" stroke="#5446b0"/>
    <text x="445" y="148" text-anchor="middle" font-size="13.5" font-weight="700" fill="#eae6fb">Embed query</text>
    <text x="445" y="165" text-anchor="middle" font-size="10.5" fill="#b3aae0">e5 dense + SPLADE sparse</text>
    <rect x="582" y="128" width="280" height="44" rx="7" fill="#2a2068" stroke="#5446b0"/>
    <text x="722" y="153" text-anchor="middle" font-size="11" fill="#b3aae0">"query:" prefix added · single embed call</text>
    <g marker-end="url(#ra)" stroke="#8a93a8" stroke-width="1.6">
      <line x1="308" y1="150" x2="318" y2="150"/>
      <line x1="570" y1="150" x2="580" y2="150"/>
    </g>
  </g>

  <!-- SEARCH band (teal) -->
  <g>
    <rect x="40" y="206" width="840" height="120" rx="10" fill="#0f6b54"/>
    <text x="60" y="231" font-size="15" font-weight="700" fill="#d7f5ec">Parallel search + fusion</text>

    <rect x="58" y="244" width="190" height="34" rx="7" fill="#0b4d3d" stroke="#1c7a61"/>
    <text x="153" y="266" text-anchor="middle" font-size="12.5" font-weight="700" fill="#eafaf5">Dense · cosine ANN · top-20</text>
    <rect x="58" y="284" width="190" height="34" rx="7" fill="#0b4d3d" stroke="#1c7a61"/>
    <text x="153" y="306" text-anchor="middle" font-size="12.5" font-weight="700" fill="#eafaf5">Sparse · SPLADE · top-20</text>

    <rect x="300" y="264" width="150" height="44" rx="7" fill="#0b4d3d" stroke="#1c7a61"/>
    <text x="375" y="284" text-anchor="middle" font-size="13.5" font-weight="700" fill="#eafaf5">RRF fusion</text>
    <text x="375" y="300" text-anchor="middle" font-size="10.5" fill="#9fd8c8">k = 60 · rank-based</text>

    <rect x="486" y="264" width="160" height="44" rx="7" fill="#0b4d3d" stroke="#1c7a61"/>
    <text x="566" y="284" text-anchor="middle" font-size="13.5" font-weight="700" fill="#eafaf5">Cross-encoder</text>
    <text x="566" y="300" text-anchor="middle" font-size="10.5" fill="#9fd8c8">MiniLM re-rank</text>

    <rect x="682" y="264" width="180" height="44" rx="7" fill="#114e3f" stroke="#2aa07f"/>
    <text x="772" y="284" text-anchor="middle" font-size="13.5" font-weight="700" fill="#7df0cf">Top-k context</text>
    <text x="772" y="300" text-anchor="middle" font-size="10.5" fill="#9fd8c8">passed to synthesis</text>

    <g marker-end="url(#ra)" stroke="#8a93a8" stroke-width="1.6" fill="none">
      <path d="M248 261 Q275 261 275 282 L298 282"/>
      <path d="M248 301 Q275 301 275 286 L298 286"/>
      <line x1="450" y1="286" x2="484" y2="286"/>
      <line x1="646" y1="286" x2="680" y2="286"/>
    </g>
  </g>

  <!-- EXPANSION band (blue) -->
  <g>
    <rect x="40" y="348" width="410" height="110" rx="10" fill="#15487f"/>
    <text x="60" y="373" font-size="15" font-weight="700" fill="#cfe3fb">Small-to-big expansion</text>
    <text x="60" y="398" font-size="12" fill="#a9c9ec">Retrieve precise 512-token child chunks,</text>
    <text x="60" y="416" font-size="12" fill="#a9c9ec">then expand each to its 2048-token parent</text>
    <text x="60" y="434" font-size="12" fill="#a9c9ec">before synthesis — precision in, context out.</text>
  </g>

  <!-- FILTER band (amber) -->
  <g>
    <rect x="470" y="348" width="410" height="110" rx="10" fill="#7a5114"/>
    <text x="490" y="373" font-size="15" font-weight="700" fill="#f6e4c0">Metadata filtering</text>
    <text x="490" y="398" font-size="12" fill="#e0c187">Applied to the dense branch payload:</text>
    <text x="490" y="416" font-size="12" fill="#e0c187">department · document_type · course_code</text>
    <text x="490" y="434" font-size="12" fill="#e0c187">· document_year (range) · exclude is_outdated</text>
  </g>

  <!-- band arrows -->
  <g marker-end="url(#ra)" stroke="#8a93a8" stroke-width="1.8">
    <line x1="460" y1="184" x2="460" y2="204"/>
    <line x1="245" y1="326" x2="245" y2="346"/>
    <line x1="675" y1="326" x2="675" y2="346"/>
  </g>
</svg>
